<?xml version="1.0" standalone="no"?>
<!DOCTYPE svg PUBLIC "-//W3C//DTD SVG 20010904//EN"
 "http://www.w3.org/TR/2001/REC-SVG-20010904/DTD/svg10.dtd">
<svg version="1.0" xmlns="http://www.w3.org/2000/svg"
 width="700.000000pt" height="700.000000pt" viewBox="0 0 700.000000 700.000000"
 preserveAspectRatio="xMidYMid meet">

<g transform="translate(0.000000,700.000000) scale(0.100000,-0.100000)"
fill="#000000" stroke="none">
<path d="M3110 4828 c-164 -23 -324 -158 -188 -158 l43 0 -51 -30 c-106 -60
-185 -168 -218 -296 -10 -37 -16 -103 -16 -163 0 -112 9 -127 55 -97 13 9 28
16 32 16 4 0 8 -44 9 -98 0 -118 26 -211 82 -298 50 -77 137 -154 174 -154 26
0 28 3 27 38 0 20 -4 57 -7 82 l-7 45 -18 -25 c-9 -13 -17 -30 -17 -37 0 -22
-14 -15 -52 25 -43 45 -79 108 -104 182 -15 44 -19 82 -18 184 l2 128 -38 -6
c-21 -3 -46 -9 -56 -13 -15 -6 -16 0 -10 58 24 228 135 374 321 424 51 14 65
22 65 37 0 21 -53 48 -96 48 -37 0 -26 20 22 39 58 22 266 21 372 -2 79 -17
85 -17 165 0 105 23 313 24 371 2 48 -19 59 -39 22 -39 -43 0 -96 -27 -96 -48
0 -15 14 -23 65 -37 186 -50 297 -196 321 -424 6 -58 5 -64 -10 -58 -10 4 -35
10 -56 13 l-38 6 2 -128 c1 -141 -10 -193 -65 -289 -26 -47 -95 -124 -102
-114 -2 2 -9 18 -16 34 l-13 30 -9 -23 c-5 -13 -12 -48 -15 -78 l-7 -54 29 0
c39 0 125 76 176 154 56 87 82 180 82 298 1 54 5 98 9 98 4 0 19 -7 32 -16 46
-30 55 -15 55 97 0 60 -6 126 -16 163 -33 128 -112 236 -218 296 l-51 30 43 0
c137 0 -25 136 -188 157 -81 11 -246 0 -328 -21 -55 -14 -69 -14 -117 -1 -51
13 -104 20 -225 29 -25 2 -74 -1 -110 -6z"/>
<path d="M3200 4565 c-69 -16 -143 -59 -148 -88 -3 -14 4 -17 34 -17 l38 0
-45 -28 c-104 -67 -151 -152 -157 -290 -5 -97 5 -129 30 -104 23 23 37 14 32
-20 -8 -51 13 -156 43 -216 30 -59 114 -142 144 -142 20 0 23 25 10 85 l-7 30
-15 -29 -16 -28 -32 38 c-61 75 -76 118 -78 234 l-3 105 -36 -1 -37 -2 6 64
c10 124 92 234 200 270 29 9 57 21 62 26 13 12 -21 38 -52 38 -33 0 -28 16 8
29 61 21 124 23 222 6 90 -15 104 -15 195 0 97 17 160 15 221 -6 35 -12 41
-29 10 -29 -27 0 -59 -18 -59 -33 0 -7 26 -20 58 -29 115 -34 199 -143 209
-272 l6 -64 -37 2 -36 1 -3 -105 c-2 -117 -18 -163 -81 -236 -32 -37 -34 -38
-40 -16 -11 33 -23 27 -30 -15 -9 -57 -8 -63 13 -63 30 0 114 83 144 142 30
60 51 165 43 216 -5 34 9 43 32 20 25 -25 35 7 30 104 -6 138 -53 223 -157
290 l-45 28 38 0 c90 0 -4 81 -124 106 -75 15 -170 10 -258 -15 -19 -6 -50 -4
-87 4 -95 22 -175 25 -245 10z"/>
<path d="M3390 4364 c-95 -35 -165 -99 -209 -194 -21 -45 -26 -70 -26 -140 0
-77 3 -92 33 -152 36 -74 95 -132 170 -169 40 -20 63 -24 147 -24 95 0 103 2
163 34 100 54 159 133 182 245 31 150 -49 310 -190 382 -70 35 -199 44 -270
18z"/>
<path d="M3340 3609 c-107 -18 -180 -49 -231 -98 l-49 -47 0 -140 c0 -250 30
-563 76 -792 65 -325 185 -567 309 -623 55 -26 82 -23 141 11 206 118 344 656
356 1384 l3 178 -42 38 c-46 41 -133 73 -243 90 -78 12 -243 11 -320 -1z"/>
</g>
</svg>
